<svg width="100" height="30" viewBox="0 0 100 30" fill="none" xmlns="http://www.w3.org/2000/svg">
<g filter="url(#filter0_d_1059_1453)">
<mask id="path-1-outside-1_1059_1453" maskUnits="userSpaceOnUse" x="4.5965" y="2.60146" width="91" height="21" fill="black">
<rect fill="white" x="4.5965" y="2.60146" width="91" height="21"/>
<path d="M20.0657 6.48396C20.1332 6.51928 20.2004 6.55402 20.2671 6.58851C21.1015 7.02007 21.8582 7.41138 22.2595 8.38685C22.4992 8.97173 22.3251 10.6136 22.1298 12.4562C21.9789 13.8793 21.8153 15.4221 21.8199 16.6902C21.8199 16.8289 21.8199 16.9677 21.8178 17.1065C21.8575 18.1473 21.4514 20.1784 20.5848 19.7032C20.3043 19.5497 19.8919 18.6792 19.5653 17.6973C19.29 16.8688 19.2761 15.4072 19.2644 14.1829C19.2536 13.0521 19.2447 12.1237 19.0336 12.0833C18.347 12.918 16.5049 14.4004 15.8057 14.8588C14.6083 15.6409 14.2253 14.5602 14.0159 13.8579C13.7584 12.9979 12.7641 11.0887 12.5652 10.931C12.4354 10.8278 12.4081 10.9398 12.3843 11.0374C12.3805 11.0531 12.3767 11.0684 12.3727 11.0824C12.3517 11.1562 12.3038 11.4384 12.2362 11.8369C12.0744 12.7908 11.7996 14.411 11.5102 15.4328C11.0685 16.9866 10.0239 19.5497 9.53619 20.1532C9.05054 20.7567 7.03047 21.2718 6.62437 21.2907C6.48942 21.323 6.86464 20.4229 7.31687 19.338C7.74851 18.3025 8.25031 17.0987 8.44557 16.3769C9.01495 14.8567 9.88159 11.3516 9.99254 9.00292C10.0688 7.72203 9.99013 6.51172 9.95008 5.8954C9.94175 5.76724 9.93508 5.66448 9.93183 5.59244C9.93183 5.03104 10.497 4.72616 10.8131 4.65887C11.1774 4.58318 11.9728 4.43599 12.7871 5.35484C13.1868 5.80536 13.7683 7.13127 14.0696 7.81812C14.1296 7.95506 14.1786 8.06673 14.2127 8.14084C14.4681 8.69804 15.542 11.217 15.7031 11.8078C16.2411 11.4167 17.0366 10.6304 17.8425 9.74305C18.7092 8.78845 19.6742 7.18834 19.781 6.39775C19.8678 6.36747 19.9487 6.41565 20.0261 6.46177C20.0401 6.47009 20.054 6.47835 20.0677 6.48606L20.0657 6.48396Z"/>
<path d="M46.247 17.4871C46.247 17.4871 46.4333 20.0376 47.2895 20.5212L47.3161 20.5419C47.5998 20.7634 48.3566 21.354 48.6564 19.0809C48.6564 19.0809 48.8532 16.6671 48.6355 15.4265C50.9214 15.437 53.0587 14.2575 53.7013 13.7717C54.3712 13.2671 54.6978 12.4471 54.8987 11.6922C55.1541 10.7292 55.2713 9.62745 55.0997 9.02189C54.905 8.33853 54.3419 8.28807 53.1885 9.77884C51.8843 11.4883 46.1926 13.7087 46.0523 10.908C46.0418 10.5211 46.0879 9.53914 46.1528 8.92517C46.2198 8.29017 45.8409 8.00842 45.4243 8.44997C44.5995 9.32257 44.3776 10.3423 44.5723 12.1065C44.6854 13.1304 45.3029 14.0977 45.7927 14.2953C45.8053 14.5224 46.247 17.485 46.247 17.485V17.4871Z"/>
<path fill-rule="evenodd" clip-rule="evenodd" d="M41.6312 9.72621C44.3295 11.013 44.5514 13.6623 43.8459 14.4508H43.8438C43.2042 15.1659 41.7669 15.3442 40.6716 15.48C39.8634 15.5803 39.2414 15.6574 39.2636 15.9101C39.2674 15.9536 39.2753 16.025 39.2856 16.1183C39.3706 16.8904 39.621 19.1661 39.1317 19.6275C38.6847 20.0491 38.6312 20.0153 37.9852 19.607C37.8387 19.5144 37.6613 19.4023 37.4424 19.2722C36.6637 18.8096 36.5527 17.3125 36.5925 15.9017C35.1502 16.0236 33.6263 16.1981 33.509 16.2297C33.4604 16.2434 33.4051 16.2541 33.3477 16.2653C33.1851 16.2968 33.0046 16.3318 32.9041 16.4483C32.7261 16.6544 32.8266 16.9908 32.9229 17.2074C33.0401 17.4681 33.1699 17.7331 33.3039 17.9833L33.3329 18.0373C33.5759 18.4894 33.8543 19.0074 33.7477 19.5371C33.6723 19.9114 33.4588 20.1237 33.059 19.9682C32.7919 19.8634 31.708 18.6652 30.9326 17.808C30.541 17.3751 30.228 17.0292 30.1388 16.9551C29.9199 16.7722 29.4334 16.8202 29.1515 16.848L29.1319 16.8499C28.5421 16.908 26.9999 17.0326 26.2504 17.0931C26.0768 17.1072 25.9457 17.1178 25.8788 17.1233C25.0374 17.1905 24.9361 17.3469 24.4945 18.0289C24.4109 18.1579 24.3152 18.3057 24.2 18.4753C24.1511 18.5471 24.0545 18.7251 23.9411 18.934C23.676 19.4225 23.3192 20.0799 23.2664 19.9429C23.2148 19.8082 23.0795 19.6737 22.9329 19.5281C22.7044 19.301 22.4484 19.0466 22.4395 18.7213C22.427 18.2671 22.648 17.9278 22.795 17.7022C22.8201 17.6636 22.8431 17.6283 22.8623 17.5964C23.0089 17.3525 23.0445 16.8836 22.7702 16.8205C22.5041 16.7593 22.5179 16.4009 22.5266 16.1761L22.5274 16.1561C22.5379 15.8743 22.5798 15.5715 22.6321 15.2814C22.6928 14.9408 22.7975 14.6254 23.1554 14.5349C23.2962 14.4988 23.4421 14.49 23.588 14.4813C23.7393 14.4722 23.8907 14.4631 24.0367 14.4235C24.33 14.3435 24.4358 14.1423 24.5666 13.8936L24.5977 13.8348C24.7024 13.6371 27.2018 8.7611 27.3295 8.10088C27.3798 7.84435 27.7607 7.69297 28.0433 7.90954C28.4144 8.19232 29.8746 10.6924 30.6106 11.9526L30.6116 11.9542C30.8217 12.314 30.9729 12.5727 31.0222 12.6489C31.6774 13.6581 31.7946 13.6834 32.544 13.6729C32.6531 13.6716 33.4553 13.6586 34.473 13.6421C35.1746 13.6307 35.9786 13.6176 36.7286 13.6056C36.8165 12.2977 36.9798 11.7784 37.5031 11.669C38.0662 11.5513 38.9098 12.1842 39.452 13.5551C39.4975 13.5522 39.5457 13.5493 39.596 13.5463C40.3836 13.4989 41.706 13.4193 41.8614 12.775C42.232 11.2338 34.3275 9.44026 32.7261 11.0067C31.893 11.8204 30.5491 9.36036 31.2315 8.94614C34.0345 7.2409 38.9308 8.4373 41.6312 9.72621ZM28.8451 13.9399C28.8451 13.9399 28.9623 13.9336 29.0084 13.8831L29.0063 13.8852C29.0523 13.8348 29 13.738 29 13.738L28.2317 11.7574C28.2317 11.7574 28.2003 11.6669 28.1187 11.6606C28.0203 11.6522 27.9491 11.8246 27.9491 11.8246L26.8229 13.7885L26.8083 13.8579L26.7999 13.9105L26.8229 13.963L26.846 14.0009L26.8899 14.0303L26.9423 14.045L27.0239 14.0618H27.1955L27.2856 14.0703L27.3756 14.0618H27.4865L27.5996 14.0534H27.7419L28.8451 13.9399Z"/>
<path d="M58.0575 18.0463C58.0721 17.8192 58.047 17.5943 57.9821 17.4176C57.8126 16.9635 57.3437 16.5009 56.8727 16.4126C56.4456 16.3327 55.939 16.4168 55.5936 16.6943C55.4052 16.8457 55.2022 17.0896 55.1038 17.3146C54.8903 17.8108 54.9112 18.5489 55.2252 18.9883C55.759 19.7326 56.8852 19.7326 57.5132 19.1292C57.8147 18.839 58.0282 18.4732 58.0575 18.0463Z"/>
<path fill-rule="evenodd" clip-rule="evenodd" d="M80.295 15.4139C81.2495 12.3629 79.0745 8.57399 76.1564 8.44784V8.44573C74.779 8.38686 73.1755 9.43187 72.0472 10.2645C71.1513 10.9268 70.2365 11.9067 69.6169 12.9096C69.3008 13.4206 69.0705 14.1775 68.947 14.7873C68.9221 14.9105 68.9061 15.045 68.8977 15.1859C67.8459 16.2797 66.7516 16.5169 66.1785 16.6411L66.0981 16.6586C65.2168 16.8289 64.325 16.8289 63.7263 16.728C63.136 16.686 62.0161 16.3748 61.6937 15.7839C61.4655 15.3655 61.6811 14.8462 61.9093 14.4761C63.1779 12.4113 65.1791 11.0383 67.6743 10.9163C68.2982 10.8848 68.9743 10.8154 69.3113 10.2141C69.7426 9.44659 69.0769 8.69805 68.363 8.4163C67.0903 7.90957 65.5747 8.40999 64.3669 8.87888C63.1737 9.34146 62.0223 9.98907 61.206 10.9731C60.1509 12.2515 59.4538 14.0366 59.7155 15.683C60.0902 18.038 61.8842 20.252 64.549 20.0186C65.3989 19.943 66.2613 19.8042 67.0673 19.5287C67.8879 19.247 68.5745 18.7928 69.2674 18.1263C69.3658 18.0316 69.4655 17.9129 69.5643 17.7783C69.9976 18.3665 70.6026 18.8105 71.168 19.1629C71.6704 19.4762 72.2524 19.7201 72.8071 19.8609C74.5634 20.3046 76.8012 19.7621 78.3021 18.6309C79.3195 17.8634 79.9286 16.5871 80.295 15.4139ZM75.2521 16.4841C74.352 16.6061 73.4791 16.5829 72.6417 16.2339C72.1498 16.0299 71.6683 15.5001 71.5783 14.8777C71.4695 14.1271 72.0451 13.3512 72.4722 12.8697C73.0715 12.1945 73.8819 11.8602 74.6523 11.5422L74.666 11.5366C75.5075 11.1876 76.55 11.1855 77.2617 11.892C77.9504 12.5753 78.0279 13.6981 77.6448 14.6107C77.1968 15.6788 76.2464 16.3495 75.2521 16.4841Z"/>
<path d="M80.1317 17.5376C80.1912 17.4096 80.2569 17.2683 80.3222 17.0665L80.3201 17.0686C80.8874 15.6283 81.4212 13.3638 81.5782 12.3629C81.692 11.8265 81.7408 11.2692 81.7891 10.7178C81.8022 10.5689 81.8152 10.4204 81.8294 10.2729C81.8372 10.1833 81.8455 10.0948 81.8536 10.0066C81.8718 9.81123 81.8897 9.61773 81.9027 9.41924C81.906 9.36214 81.9069 9.29947 81.9079 9.2339C81.9123 8.9301 81.9175 8.56413 82.1706 8.40157C82.4009 8.25438 82.7358 8.35741 82.9703 8.44152C83.3031 8.55927 83.6025 8.70014 83.8348 8.99031C84.0328 9.23835 84.1651 9.54434 84.2938 9.84205L84.3037 9.865C84.4233 10.1452 84.5501 10.4204 84.6768 10.6955C84.7165 10.7817 84.7562 10.8679 84.7957 10.9542C84.9213 11.2401 85.0448 11.524 85.1536 11.8205C85.1596 11.8369 85.1658 11.8541 85.1722 11.8719C85.2875 12.1923 85.4785 12.7232 85.8235 12.7729C86.0792 12.8079 86.2496 12.5423 86.3876 12.3272C86.4157 12.2835 86.4424 12.2418 86.4683 12.2052C86.9958 11.4609 87.5924 10.7607 88.1869 10.0816C88.5218 9.7031 88.8735 9.34986 89.2649 9.03867C89.7234 8.67281 90.3305 8.32377 90.9166 8.35531C91.1594 8.36793 91.4378 8.46675 91.6513 8.59291C91.8795 8.72538 91.9842 8.83892 92.1642 9.04077C92.2839 9.17434 92.3671 9.35191 92.4483 9.52541C92.4822 9.59772 92.5158 9.66932 92.5515 9.73674C92.6479 9.91042 92.7001 10.1766 92.7478 10.4199C92.7706 10.5359 92.7923 10.6467 92.8173 10.7397C93.0267 12.0202 93.0267 12.4386 93.0183 13.6708C92.9977 14.064 92.9978 14.4564 92.9979 14.8486C92.998 15.2932 92.9981 15.7377 92.9681 16.1834L92.9676 16.1896C92.9426 16.5471 92.9178 16.9025 92.9178 17.2621C92.9257 17.7339 92.9945 18.024 93.0664 18.3271C93.1278 18.586 93.1915 18.8543 93.2213 19.2533L93.2226 19.2699C93.2411 19.5086 93.2602 19.755 93.2192 19.9913C93.1983 20.1069 93.1753 20.231 93.1251 20.3319C92.8801 20.8176 92.1789 20.9333 91.7958 20.5863C91.4734 20.2941 91.2536 19.8609 91.128 19.4425C91.0667 19.2275 91.0226 19.1201 90.9837 19.0252C90.9335 18.903 90.8918 18.8015 90.8329 18.5174C90.7847 18.2735 90.7407 18.0296 90.6968 17.7857L90.611 17.2705C90.5941 17.1692 90.5768 17.0679 90.5596 16.9665C90.5149 16.704 90.4702 16.4411 90.4309 16.1771C90.351 15.5978 90.3043 15.0141 90.2577 14.4321C90.225 14.0233 90.1924 13.6154 90.1483 13.2103C90.1253 13.0042 90.0688 12.7183 89.826 12.7225C89.6044 12.7258 89.4181 12.9732 89.265 13.1764C89.2243 13.2305 89.1859 13.2814 89.1498 13.3238C89.0179 13.4815 88.8845 13.6382 88.751 13.7948C88.6176 13.9515 88.4841 14.1081 88.3523 14.2658C88.1855 14.4629 88.0215 14.6638 87.8591 14.8628C87.7789 14.9609 87.6991 15.0587 87.6196 15.1552C87.5911 15.1904 87.5613 15.228 87.5301 15.2673C87.1808 15.7074 86.6668 16.3551 86.0998 16.0404C85.8205 15.8878 85.6368 15.5752 85.4641 15.2813C85.4155 15.1986 85.3677 15.1174 85.319 15.0417C85.2869 14.9906 85.2549 14.9395 85.223 14.8885C85.0552 14.6202 84.8882 14.3534 84.7036 14.0955C84.6956 14.0841 84.6867 14.0713 84.677 14.0573C84.5474 13.8694 84.2745 13.4739 84.0505 13.6245C83.9015 13.7253 83.8488 13.9087 83.7984 14.0845C83.7815 14.1434 83.7648 14.2015 83.7448 14.2553C83.7019 14.3662 83.6535 14.4748 83.605 14.5833C83.5423 14.7238 83.4795 14.8643 83.4287 15.0102C83.3588 15.2053 83.2839 15.3995 83.2088 15.5939C83.1311 15.7953 83.0532 15.997 82.9808 16.2002C82.7882 16.7469 82.6144 17.2999 82.4449 17.855C82.3341 18.2173 82.2327 18.4261 82.1199 18.6586C82.0409 18.8214 81.9562 18.9959 81.8587 19.2428C81.731 19.5561 81.5259 19.9345 81.2454 20.1111C80.8937 20.3319 80.5148 20.0691 80.2908 19.7663C79.9852 19.3542 79.868 18.797 79.9161 18.2798C79.9514 17.9256 80.0331 17.7499 80.1317 17.5376Z"/>
</mask>
<path d="M20.0657 6.48396C20.1332 6.51928 20.2004 6.55402 20.2671 6.58851C21.1015 7.02007 21.8582 7.41138 22.2595 8.38685C22.4992 8.97173 22.3251 10.6136 22.1298 12.4562C21.9789 13.8793 21.8153 15.4221 21.8199 16.6902C21.8199 16.8289 21.8199 16.9677 21.8178 17.1065C21.8575 18.1473 21.4514 20.1784 20.5848 19.7032C20.3043 19.5497 19.8919 18.6792 19.5653 17.6973C19.29 16.8688 19.2761 15.4072 19.2644 14.1829C19.2536 13.0521 19.2447 12.1237 19.0336 12.0833C18.347 12.918 16.5049 14.4004 15.8057 14.8588C14.6083 15.6409 14.2253 14.5602 14.0159 13.8579C13.7584 12.9979 12.7641 11.0887 12.5652 10.931C12.4354 10.8278 12.4081 10.9398 12.3843 11.0374C12.3805 11.0531 12.3767 11.0684 12.3727 11.0824C12.3517 11.1562 12.3038 11.4384 12.2362 11.8369C12.0744 12.7908 11.7996 14.411 11.5102 15.4328C11.0685 16.9866 10.0239 19.5497 9.53619 20.1532C9.05054 20.7567 7.03047 21.2718 6.62437 21.2907C6.48942 21.323 6.86464 20.4229 7.31687 19.338C7.74851 18.3025 8.25031 17.0987 8.44557 16.3769C9.01495 14.8567 9.88159 11.3516 9.99254 9.00292C10.0688 7.72203 9.99013 6.51172 9.95008 5.8954C9.94175 5.76724 9.93508 5.66448 9.93183 5.59244C9.93183 5.03104 10.497 4.72616 10.8131 4.65887C11.1774 4.58318 11.9728 4.43599 12.7871 5.35484C13.1868 5.80536 13.7683 7.13127 14.0696 7.81812C14.1296 7.95506 14.1786 8.06673 14.2127 8.14084C14.4681 8.69804 15.542 11.217 15.7031 11.8078C16.2411 11.4167 17.0366 10.6304 17.8425 9.74305C18.7092 8.78845 19.6742 7.18834 19.781 6.39775C19.8678 6.36747 19.9487 6.41565 20.0261 6.46177C20.0401 6.47009 20.054 6.47835 20.0677 6.48606L20.0657 6.48396Z" fill="white"/>
<path d="M46.247 17.4871C46.247 17.4871 46.4333 20.0376 47.2895 20.5212L47.3161 20.5419C47.5998 20.7634 48.3566 21.354 48.6564 19.0809C48.6564 19.0809 48.8532 16.6671 48.6355 15.4265C50.9214 15.437 53.0587 14.2575 53.7013 13.7717C54.3712 13.2671 54.6978 12.4471 54.8987 11.6922C55.1541 10.7292 55.2713 9.62745 55.0997 9.02189C54.905 8.33853 54.3419 8.28807 53.1885 9.77884C51.8843 11.4883 46.1926 13.7087 46.0523 10.908C46.0418 10.5211 46.0879 9.53914 46.1528 8.92517C46.2198 8.29017 45.8409 8.00842 45.4243 8.44997C44.5995 9.32257 44.3776 10.3423 44.5723 12.1065C44.6854 13.1304 45.3029 14.0977 45.7927 14.2953C45.8053 14.5224 46.247 17.485 46.247 17.485V17.4871Z" fill="white"/>
<path fill-rule="evenodd" clip-rule="evenodd" d="M41.6312 9.72621C44.3295 11.013 44.5514 13.6623 43.8459 14.4508H43.8438C43.2042 15.1659 41.7669 15.3442 40.6716 15.48C39.8634 15.5803 39.2414 15.6574 39.2636 15.9101C39.2674 15.9536 39.2753 16.025 39.2856 16.1183C39.3706 16.8904 39.621 19.1661 39.1317 19.6275C38.6847 20.0491 38.6312 20.0153 37.9852 19.607C37.8387 19.5144 37.6613 19.4023 37.4424 19.2722C36.6637 18.8096 36.5527 17.3125 36.5925 15.9017C35.1502 16.0236 33.6263 16.1981 33.509 16.2297C33.4604 16.2434 33.4051 16.2541 33.3477 16.2653C33.1851 16.2968 33.0046 16.3318 32.9041 16.4483C32.7261 16.6544 32.8266 16.9908 32.9229 17.2074C33.0401 17.4681 33.1699 17.7331 33.3039 17.9833L33.3329 18.0373C33.5759 18.4894 33.8543 19.0074 33.7477 19.5371C33.6723 19.9114 33.4588 20.1237 33.059 19.9682C32.7919 19.8634 31.708 18.6652 30.9326 17.808C30.541 17.3751 30.228 17.0292 30.1388 16.9551C29.9199 16.7722 29.4334 16.8202 29.1515 16.848L29.1319 16.8499C28.5421 16.908 26.9999 17.0326 26.2504 17.0931C26.0768 17.1072 25.9457 17.1178 25.8788 17.1233C25.0374 17.1905 24.9361 17.3469 24.4945 18.0289C24.4109 18.1579 24.3152 18.3057 24.2 18.4753C24.1511 18.5471 24.0545 18.7251 23.9411 18.934C23.676 19.4225 23.3192 20.0799 23.2664 19.9429C23.2148 19.8082 23.0795 19.6737 22.9329 19.5281C22.7044 19.301 22.4484 19.0466 22.4395 18.7213C22.427 18.2671 22.648 17.9278 22.795 17.7022C22.8201 17.6636 22.8431 17.6283 22.8623 17.5964C23.0089 17.3525 23.0445 16.8836 22.7702 16.8205C22.5041 16.7593 22.5179 16.4009 22.5266 16.1761L22.5274 16.1561C22.5379 15.8743 22.5798 15.5715 22.6321 15.2814C22.6928 14.9408 22.7975 14.6254 23.1554 14.5349C23.2962 14.4988 23.4421 14.49 23.588 14.4813C23.7393 14.4722 23.8907 14.4631 24.0367 14.4235C24.33 14.3435 24.4358 14.1423 24.5666 13.8936L24.5977 13.8348C24.7024 13.6371 27.2018 8.7611 27.3295 8.10088C27.3798 7.84435 27.7607 7.69297 28.0433 7.90954C28.4144 8.19232 29.8746 10.6924 30.6106 11.9526L30.6116 11.9542C30.8217 12.314 30.9729 12.5727 31.0222 12.6489C31.6774 13.6581 31.7946 13.6834 32.544 13.6729C32.6531 13.6716 33.4553 13.6586 34.473 13.6421C35.1746 13.6307 35.9786 13.6176 36.7286 13.6056C36.8165 12.2977 36.9798 11.7784 37.5031 11.669C38.0662 11.5513 38.9098 12.1842 39.452 13.5551C39.4975 13.5522 39.5457 13.5493 39.596 13.5463C40.3836 13.4989 41.706 13.4193 41.8614 12.775C42.232 11.2338 34.3275 9.44026 32.7261 11.0067C31.893 11.8204 30.5491 9.36036 31.2315 8.94614C34.0345 7.2409 38.9308 8.4373 41.6312 9.72621ZM28.8451 13.9399C28.8451 13.9399 28.9623 13.9336 29.0084 13.8831L29.0063 13.8852C29.0523 13.8348 29 13.738 29 13.738L28.2317 11.7574C28.2317 11.7574 28.2003 11.6669 28.1187 11.6606C28.0203 11.6522 27.9491 11.8246 27.9491 11.8246L26.8229 13.7885L26.8083 13.8579L26.7999 13.9105L26.8229 13.963L26.846 14.0009L26.8899 14.0303L26.9423 14.045L27.0239 14.0618H27.1955L27.2856 14.0703L27.3756 14.0618H27.4865L27.5996 14.0534H27.7419L28.8451 13.9399Z" fill="white"/>
<path d="M58.0575 18.0463C58.0721 17.8192 58.047 17.5943 57.9821 17.4176C57.8126 16.9635 57.3437 16.5009 56.8727 16.4126C56.4456 16.3327 55.939 16.4168 55.5936 16.6943C55.4052 16.8457 55.2022 17.0896 55.1038 17.3146C54.8903 17.8108 54.9112 18.5489 55.2252 18.9883C55.759 19.7326 56.8852 19.7326 57.5132 19.1292C57.8147 18.839 58.0282 18.4732 58.0575 18.0463Z" fill="white"/>
<path fill-rule="evenodd" clip-rule="evenodd" d="M80.295 15.4139C81.2495 12.3629 79.0745 8.57399 76.1564 8.44784V8.44573C74.779 8.38686 73.1755 9.43187 72.0472 10.2645C71.1513 10.9268 70.2365 11.9067 69.6169 12.9096C69.3008 13.4206 69.0705 14.1775 68.947 14.7873C68.9221 14.9105 68.9061 15.045 68.8977 15.1859C67.8459 16.2797 66.7516 16.5169 66.1785 16.6411L66.0981 16.6586C65.2168 16.8289 64.325 16.8289 63.7263 16.728C63.136 16.686 62.0161 16.3748 61.6937 15.7839C61.4655 15.3655 61.6811 14.8462 61.9093 14.4761C63.1779 12.4113 65.1791 11.0383 67.6743 10.9163C68.2982 10.8848 68.9743 10.8154 69.3113 10.2141C69.7426 9.44659 69.0769 8.69805 68.363 8.4163C67.0903 7.90957 65.5747 8.40999 64.3669 8.87888C63.1737 9.34146 62.0223 9.98907 61.206 10.9731C60.1509 12.2515 59.4538 14.0366 59.7155 15.683C60.0902 18.038 61.8842 20.252 64.549 20.0186C65.3989 19.943 66.2613 19.8042 67.0673 19.5287C67.8879 19.247 68.5745 18.7928 69.2674 18.1263C69.3658 18.0316 69.4655 17.9129 69.5643 17.7783C69.9976 18.3665 70.6026 18.8105 71.168 19.1629C71.6704 19.4762 72.2524 19.7201 72.8071 19.8609C74.5634 20.3046 76.8012 19.7621 78.3021 18.6309C79.3195 17.8634 79.9286 16.5871 80.295 15.4139ZM75.2521 16.4841C74.352 16.6061 73.4791 16.5829 72.6417 16.2339C72.1498 16.0299 71.6683 15.5001 71.5783 14.8777C71.4695 14.1271 72.0451 13.3512 72.4722 12.8697C73.0715 12.1945 73.8819 11.8602 74.6523 11.5422L74.666 11.5366C75.5075 11.1876 76.55 11.1855 77.2617 11.892C77.9504 12.5753 78.0279 13.6981 77.6448 14.6107C77.1968 15.6788 76.2464 16.3495 75.2521 16.4841Z" fill="white"/>
<path d="M80.1317 17.5376C80.1912 17.4096 80.2569 17.2683 80.3222 17.0665L80.3201 17.0686C80.8874 15.6283 81.4212 13.3638 81.5782 12.3629C81.692 11.8265 81.7408 11.2692 81.7891 10.7178C81.8022 10.5689 81.8152 10.4204 81.8294 10.2729C81.8372 10.1833 81.8455 10.0948 81.8536 10.0066C81.8718 9.81123 81.8897 9.61773 81.9027 9.41924C81.906 9.36214 81.9069 9.29947 81.9079 9.2339C81.9123 8.9301 81.9175 8.56413 82.1706 8.40157C82.4009 8.25438 82.7358 8.35741 82.9703 8.44152C83.3031 8.55927 83.6025 8.70014 83.8348 8.99031C84.0328 9.23835 84.1651 9.54434 84.2938 9.84205L84.3037 9.865C84.4233 10.1452 84.5501 10.4204 84.6768 10.6955C84.7165 10.7817 84.7562 10.8679 84.7957 10.9542C84.9213 11.2401 85.0448 11.524 85.1536 11.8205C85.1596 11.8369 85.1658 11.8541 85.1722 11.8719C85.2875 12.1923 85.4785 12.7232 85.8235 12.7729C86.0792 12.8079 86.2496 12.5423 86.3876 12.3272C86.4157 12.2835 86.4424 12.2418 86.4683 12.2052C86.9958 11.4609 87.5924 10.7607 88.1869 10.0816C88.5218 9.7031 88.8735 9.34986 89.2649 9.03867C89.7234 8.67281 90.3305 8.32377 90.9166 8.35531C91.1594 8.36793 91.4378 8.46675 91.6513 8.59291C91.8795 8.72538 91.9842 8.83892 92.1642 9.04077C92.2839 9.17434 92.3671 9.35191 92.4483 9.52541C92.4822 9.59772 92.5158 9.66932 92.5515 9.73674C92.6479 9.91042 92.7001 10.1766 92.7478 10.4199C92.7706 10.5359 92.7923 10.6467 92.8173 10.7397C93.0267 12.0202 93.0267 12.4386 93.0183 13.6708C92.9977 14.064 92.9978 14.4564 92.9979 14.8486C92.998 15.2932 92.9981 15.7377 92.9681 16.1834L92.9676 16.1896C92.9426 16.5471 92.9178 16.9025 92.9178 17.2621C92.9257 17.7339 92.9945 18.024 93.0664 18.3271C93.1278 18.586 93.1915 18.8543 93.2213 19.2533L93.2226 19.2699C93.2411 19.5086 93.2602 19.755 93.2192 19.9913C93.1983 20.1069 93.1753 20.231 93.1251 20.3319C92.8801 20.8176 92.1789 20.9333 91.7958 20.5863C91.4734 20.2941 91.2536 19.8609 91.128 19.4425C91.0667 19.2275 91.0226 19.1201 90.9837 19.0252C90.9335 18.903 90.8918 18.8015 90.8329 18.5174C90.7847 18.2735 90.7407 18.0296 90.6968 17.7857L90.611 17.2705C90.5941 17.1692 90.5768 17.0679 90.5596 16.9665C90.5149 16.704 90.4702 16.4411 90.4309 16.1771C90.351 15.5978 90.3043 15.0141 90.2577 14.4321C90.225 14.0233 90.1924 13.6154 90.1483 13.2103C90.1253 13.0042 90.0688 12.7183 89.826 12.7225C89.6044 12.7258 89.4181 12.9732 89.265 13.1764C89.2243 13.2305 89.1859 13.2814 89.1498 13.3238C89.0179 13.4815 88.8845 13.6382 88.751 13.7948C88.6176 13.9515 88.4841 14.1081 88.3523 14.2658C88.1855 14.4629 88.0215 14.6638 87.8591 14.8628C87.7789 14.9609 87.6991 15.0587 87.6196 15.1552C87.5911 15.1904 87.5613 15.228 87.5301 15.2673C87.1808 15.7074 86.6668 16.3551 86.0998 16.0404C85.8205 15.8878 85.6368 15.5752 85.4641 15.2813C85.4155 15.1986 85.3677 15.1174 85.319 15.0417C85.2869 14.9906 85.2549 14.9395 85.223 14.8885C85.0552 14.6202 84.8882 14.3534 84.7036 14.0955C84.6956 14.0841 84.6867 14.0713 84.677 14.0573C84.5474 13.8694 84.2745 13.4739 84.0505 13.6245C83.9015 13.7253 83.8488 13.9087 83.7984 14.0845C83.7815 14.1434 83.7648 14.2015 83.7448 14.2553C83.7019 14.3662 83.6535 14.4748 83.605 14.5833C83.5423 14.7238 83.4795 14.8643 83.4287 15.0102C83.3588 15.2053 83.2839 15.3995 83.2088 15.5939C83.1311 15.7953 83.0532 15.997 82.9808 16.2002C82.7882 16.7469 82.6144 17.2999 82.4449 17.855C82.3341 18.2173 82.2327 18.4261 82.1199 18.6586C82.0409 18.8214 81.9562 18.9959 81.8587 19.2428C81.731 19.5561 81.5259 19.9345 81.2454 20.1111C80.8937 20.3319 80.5148 20.0691 80.2908 19.7663C79.9852 19.3542 79.868 18.797 79.9161 18.2798C79.9514 17.9256 80.0331 17.7499 80.1317 17.5376Z" fill="white"/>
<path d="M20.0657 6.48396C20.1332 6.51928 20.2004 6.55402 20.2671 6.58851C21.1015 7.02007 21.8582 7.41138 22.2595 8.38685C22.4992 8.97173 22.3251 10.6136 22.1298 12.4562C21.9789 13.8793 21.8153 15.4221 21.8199 16.6902C21.8199 16.8289 21.8199 16.9677 21.8178 17.1065C21.8575 18.1473 21.4514 20.1784 20.5848 19.7032C20.3043 19.5497 19.8919 18.6792 19.5653 17.6973C19.29 16.8688 19.2761 15.4072 19.2644 14.1829C19.2536 13.0521 19.2447 12.1237 19.0336 12.0833C18.347 12.918 16.5049 14.4004 15.8057 14.8588C14.6083 15.6409 14.2253 14.5602 14.0159 13.8579C13.7584 12.9979 12.7641 11.0887 12.5652 10.931C12.4354 10.8278 12.4081 10.9398 12.3843 11.0374C12.3805 11.0531 12.3767 11.0684 12.3727 11.0824C12.3517 11.1562 12.3038 11.4384 12.2362 11.8369C12.0744 12.7908 11.7996 14.411 11.5102 15.4328C11.0685 16.9866 10.0239 19.5497 9.53619 20.1532C9.05054 20.7567 7.03047 21.2718 6.62437 21.2907C6.48942 21.323 6.86464 20.4229 7.31687 19.338C7.74851 18.3025 8.25031 17.0987 8.44557 16.3769C9.01495 14.8567 9.88159 11.3516 9.99254 9.00292C10.0688 7.72203 9.99013 6.51172 9.95008 5.8954C9.94175 5.76724 9.93508 5.66448 9.93183 5.59244C9.93183 5.03104 10.497 4.72616 10.8131 4.65887C11.1774 4.58318 11.9728 4.43599 12.7871 5.35484C13.1868 5.80536 13.7683 7.13127 14.0696 7.81812C14.1296 7.95506 14.1786 8.06673 14.2127 8.14084C14.4681 8.69804 15.542 11.217 15.7031 11.8078C16.2411 11.4167 17.0366 10.6304 17.8425 9.74305C18.7092 8.78845 19.6742 7.18834 19.781 6.39775C19.8678 6.36747 19.9487 6.41565 20.0261 6.46177C20.0401 6.47009 20.054 6.47835 20.0677 6.48606L20.0657 6.48396Z" stroke="white" stroke-width="4" mask="url(#path-1-outside-1_1059_1453)"/>
<path d="M46.247 17.4871C46.247 17.4871 46.4333 20.0376 47.2895 20.5212L47.3161 20.5419C47.5998 20.7634 48.3566 21.354 48.6564 19.0809C48.6564 19.0809 48.8532 16.6671 48.6355 15.4265C50.9214 15.437 53.0587 14.2575 53.7013 13.7717C54.3712 13.2671 54.6978 12.4471 54.8987 11.6922C55.1541 10.7292 55.2713 9.62745 55.0997 9.02189C54.905 8.33853 54.3419 8.28807 53.1885 9.77884C51.8843 11.4883 46.1926 13.7087 46.0523 10.908C46.0418 10.5211 46.0879 9.53914 46.1528 8.92517C46.2198 8.29017 45.8409 8.00842 45.4243 8.44997C44.5995 9.32257 44.3776 10.3423 44.5723 12.1065C44.6854 13.1304 45.3029 14.0977 45.7927 14.2953C45.8053 14.5224 46.247 17.485 46.247 17.485V17.4871Z" stroke="white" stroke-width="4" mask="url(#path-1-outside-1_1059_1453)"/>
<path fill-rule="evenodd" clip-rule="evenodd" d="M41.6312 9.72621C44.3295 11.013 44.5514 13.6623 43.8459 14.4508H43.8438C43.2042 15.1659 41.7669 15.3442 40.6716 15.48C39.8634 15.5803 39.2414 15.6574 39.2636 15.9101C39.2674 15.9536 39.2753 16.025 39.2856 16.1183C39.3706 16.8904 39.621 19.1661 39.1317 19.6275C38.6847 20.0491 38.6312 20.0153 37.9852 19.607C37.8387 19.5144 37.6613 19.4023 37.4424 19.2722C36.6637 18.8096 36.5527 17.3125 36.5925 15.9017C35.1502 16.0236 33.6263 16.1981 33.509 16.2297C33.4604 16.2434 33.4051 16.2541 33.3477 16.2653C33.1851 16.2968 33.0046 16.3318 32.9041 16.4483C32.7261 16.6544 32.8266 16.9908 32.9229 17.2074C33.0401 17.4681 33.1699 17.7331 33.3039 17.9833L33.3329 18.0373C33.5759 18.4894 33.8543 19.0074 33.7477 19.5371C33.6723 19.9114 33.4588 20.1237 33.059 19.9682C32.7919 19.8634 31.708 18.6652 30.9326 17.808C30.541 17.3751 30.228 17.0292 30.1388 16.9551C29.9199 16.7722 29.4334 16.8202 29.1515 16.848L29.1319 16.8499C28.5421 16.908 26.9999 17.0326 26.2504 17.0931C26.0768 17.1072 25.9457 17.1178 25.8788 17.1233C25.0374 17.1905 24.9361 17.3469 24.4945 18.0289C24.4109 18.1579 24.3152 18.3057 24.2 18.4753C24.1511 18.5471 24.0545 18.7251 23.9411 18.934C23.676 19.4225 23.3192 20.0799 23.2664 19.9429C23.2148 19.8082 23.0795 19.6737 22.9329 19.5281C22.7044 19.301 22.4484 19.0466 22.4395 18.7213C22.427 18.2671 22.648 17.9278 22.795 17.7022C22.8201 17.6636 22.8431 17.6283 22.8623 17.5964C23.0089 17.3525 23.0445 16.8836 22.7702 16.8205C22.5041 16.7593 22.5179 16.4009 22.5266 16.1761L22.5274 16.1561C22.5379 15.8743 22.5798 15.5715 22.6321 15.2814C22.6928 14.9408 22.7975 14.6254 23.1554 14.5349C23.2962 14.4988 23.4421 14.49 23.588 14.4813C23.7393 14.4722 23.8907 14.4631 24.0367 14.4235C24.33 14.3435 24.4358 14.1423 24.5666 13.8936L24.5977 13.8348C24.7024 13.6371 27.2018 8.7611 27.3295 8.10088C27.3798 7.84435 27.7607 7.69297 28.0433 7.90954C28.4144 8.19232 29.8746 10.6924 30.6106 11.9526L30.6116 11.9542C30.8217 12.314 30.9729 12.5727 31.0222 12.6489C31.6774 13.6581 31.7946 13.6834 32.544 13.6729C32.6531 13.6716 33.4553 13.6586 34.473 13.6421C35.1746 13.6307 35.9786 13.6176 36.7286 13.6056C36.8165 12.2977 36.9798 11.7784 37.5031 11.669C38.0662 11.5513 38.9098 12.1842 39.452 13.5551C39.4975 13.5522 39.5457 13.5493 39.596 13.5463C40.3836 13.4989 41.706 13.4193 41.8614 12.775C42.232 11.2338 34.3275 9.44026 32.7261 11.0067C31.893 11.8204 30.5491 9.36036 31.2315 8.94614C34.0345 7.2409 38.9308 8.4373 41.6312 9.72621ZM28.8451 13.9399C28.8451 13.9399 28.9623 13.9336 29.0084 13.8831L29.0063 13.8852C29.0523 13.8348 29 13.738 29 13.738L28.2317 11.7574C28.2317 11.7574 28.2003 11.6669 28.1187 11.6606C28.0203 11.6522 27.9491 11.8246 27.9491 11.8246L26.8229 13.7885L26.8083 13.8579L26.7999 13.9105L26.8229 13.963L26.846 14.0009L26.8899 14.0303L26.9423 14.045L27.0239 14.0618H27.1955L27.2856 14.0703L27.3756 14.0618H27.4865L27.5996 14.0534H27.7419L28.8451 13.9399Z" stroke="white" stroke-width="4" mask="url(#path-1-outside-1_1059_1453)"/>
<path d="M58.0575 18.0463C58.0721 17.8192 58.047 17.5943 57.9821 17.4176C57.8126 16.9635 57.3437 16.5009 56.8727 16.4126C56.4456 16.3327 55.939 16.4168 55.5936 16.6943C55.4052 16.8457 55.2022 17.0896 55.1038 17.3146C54.8903 17.8108 54.9112 18.5489 55.2252 18.9883C55.759 19.7326 56.8852 19.7326 57.5132 19.1292C57.8147 18.839 58.0282 18.4732 58.0575 18.0463Z" stroke="white" stroke-width="4" mask="url(#path-1-outside-1_1059_1453)"/>
<path fill-rule="evenodd" clip-rule="evenodd" d="M80.295 15.4139C81.2495 12.3629 79.0745 8.57399 76.1564 8.44784V8.44573C74.779 8.38686 73.1755 9.43187 72.0472 10.2645C71.1513 10.9268 70.2365 11.9067 69.6169 12.9096C69.3008 13.4206 69.0705 14.1775 68.947 14.7873C68.9221 14.9105 68.9061 15.045 68.8977 15.1859C67.8459 16.2797 66.7516 16.5169 66.1785 16.6411L66.0981 16.6586C65.2168 16.8289 64.325 16.8289 63.7263 16.728C63.136 16.686 62.0161 16.3748 61.6937 15.7839C61.4655 15.3655 61.6811 14.8462 61.9093 14.4761C63.1779 12.4113 65.1791 11.0383 67.6743 10.9163C68.2982 10.8848 68.9743 10.8154 69.3113 10.2141C69.7426 9.44659 69.0769 8.69805 68.363 8.4163C67.0903 7.90957 65.5747 8.40999 64.3669 8.87888C63.1737 9.34146 62.0223 9.98907 61.206 10.9731C60.1509 12.2515 59.4538 14.0366 59.7155 15.683C60.0902 18.038 61.8842 20.252 64.549 20.0186C65.3989 19.943 66.2613 19.8042 67.0673 19.5287C67.8879 19.247 68.5745 18.7928 69.2674 18.1263C69.3658 18.0316 69.4655 17.9129 69.5643 17.7783C69.9976 18.3665 70.6026 18.8105 71.168 19.1629C71.6704 19.4762 72.2524 19.7201 72.8071 19.8609C74.5634 20.3046 76.8012 19.7621 78.3021 18.6309C79.3195 17.8634 79.9286 16.5871 80.295 15.4139ZM75.2521 16.4841C74.352 16.6061 73.4791 16.5829 72.6417 16.2339C72.1498 16.0299 71.6683 15.5001 71.5783 14.8777C71.4695 14.1271 72.0451 13.3512 72.4722 12.8697C73.0715 12.1945 73.8819 11.8602 74.6523 11.5422L74.666 11.5366C75.5075 11.1876 76.55 11.1855 77.2617 11.892C77.9504 12.5753 78.0279 13.6981 77.6448 14.6107C77.1968 15.6788 76.2464 16.3495 75.2521 16.4841Z" stroke="white" stroke-width="4" mask="url(#path-1-outside-1_1059_1453)"/>
<path d="M80.1317 17.5376C80.1912 17.4096 80.2569 17.2683 80.3222 17.0665L80.3201 17.0686C80.8874 15.6283 81.4212 13.3638 81.5782 12.3629C81.692 11.8265 81.7408 11.2692 81.7891 10.7178C81.8022 10.5689 81.8152 10.4204 81.8294 10.2729C81.8372 10.1833 81.8455 10.0948 81.8536 10.0066C81.8718 9.81123 81.8897 9.61773 81.9027 9.41924C81.906 9.36214 81.9069 9.29947 81.9079 9.2339C81.9123 8.9301 81.9175 8.56413 82.1706 8.40157C82.4009 8.25438 82.7358 8.35741 82.9703 8.44152C83.3031 8.55927 83.6025 8.70014 83.8348 8.99031C84.0328 9.23835 84.1651 9.54434 84.2938 9.84205L84.3037 9.865C84.4233 10.1452 84.5501 10.4204 84.6768 10.6955C84.7165 10.7817 84.7562 10.8679 84.7957 10.9542C84.9213 11.2401 85.0448 11.524 85.1536 11.8205C85.1596 11.8369 85.1658 11.8541 85.1722 11.8719C85.2875 12.1923 85.4785 12.7232 85.8235 12.7729C86.0792 12.8079 86.2496 12.5423 86.3876 12.3272C86.4157 12.2835 86.4424 12.2418 86.4683 12.2052C86.9958 11.4609 87.5924 10.7607 88.1869 10.0816C88.5218 9.7031 88.8735 9.34986 89.2649 9.03867C89.7234 8.67281 90.3305 8.32377 90.9166 8.35531C91.1594 8.36793 91.4378 8.46675 91.6513 8.59291C91.8795 8.72538 91.9842 8.83892 92.1642 9.04077C92.2839 9.17434 92.3671 9.35191 92.4483 9.52541C92.4822 9.59772 92.5158 9.66932 92.5515 9.73674C92.6479 9.91042 92.7001 10.1766 92.7478 10.4199C92.7706 10.5359 92.7923 10.6467 92.8173 10.7397C93.0267 12.0202 93.0267 12.4386 93.0183 13.6708C92.9977 14.064 92.9978 14.4564 92.9979 14.8486C92.998 15.2932 92.9981 15.7377 92.9681 16.1834L92.9676 16.1896C92.9426 16.5471 92.9178 16.9025 92.9178 17.2621C92.9257 17.7339 92.9945 18.024 93.0664 18.3271C93.1278 18.586 93.1915 18.8543 93.2213 19.2533L93.2226 19.2699C93.2411 19.5086 93.2602 19.755 93.2192 19.9913C93.1983 20.1069 93.1753 20.231 93.1251 20.3319C92.8801 20.8176 92.1789 20.9333 91.7958 20.5863C91.4734 20.2941 91.2536 19.8609 91.128 19.4425C91.0667 19.2275 91.0226 19.1201 90.9837 19.0252C90.9335 18.903 90.8918 18.8015 90.8329 18.5174C90.7847 18.2735 90.7407 18.0296 90.6968 17.7857L90.611 17.2705C90.5941 17.1692 90.5768 17.0679 90.5596 16.9665C90.5149 16.704 90.4702 16.4411 90.4309 16.1771C90.351 15.5978 90.3043 15.0141 90.2577 14.4321C90.225 14.0233 90.1924 13.6154 90.1483 13.2103C90.1253 13.0042 90.0688 12.7183 89.826 12.7225C89.6044 12.7258 89.4181 12.9732 89.265 13.1764C89.2243 13.2305 89.1859 13.2814 89.1498 13.3238C89.0179 13.4815 88.8845 13.6382 88.751 13.7948C88.6176 13.9515 88.4841 14.1081 88.3523 14.2658C88.1855 14.4629 88.0215 14.6638 87.8591 14.8628C87.7789 14.9609 87.6991 15.0587 87.6196 15.1552C87.5911 15.1904 87.5613 15.228 87.5301 15.2673C87.1808 15.7074 86.6668 16.3551 86.0998 16.0404C85.8205 15.8878 85.6368 15.5752 85.4641 15.2813C85.4155 15.1986 85.3677 15.1174 85.319 15.0417C85.2869 14.9906 85.2549 14.9395 85.223 14.8885C85.0552 14.6202 84.8882 14.3534 84.7036 14.0955C84.6956 14.0841 84.6867 14.0713 84.677 14.0573C84.5474 13.8694 84.2745 13.4739 84.0505 13.6245C83.9015 13.7253 83.8488 13.9087 83.7984 14.0845C83.7815 14.1434 83.7648 14.2015 83.7448 14.2553C83.7019 14.3662 83.6535 14.4748 83.605 14.5833C83.5423 14.7238 83.4795 14.8643 83.4287 15.0102C83.3588 15.2053 83.2839 15.3995 83.2088 15.5939C83.1311 15.7953 83.0532 15.997 82.9808 16.2002C82.7882 16.7469 82.6144 17.2999 82.4449 17.855C82.3341 18.2173 82.2327 18.4261 82.1199 18.6586C82.0409 18.8214 81.9562 18.9959 81.8587 19.2428C81.731 19.5561 81.5259 19.9345 81.2454 20.1111C80.8937 20.3319 80.5148 20.0691 80.2908 19.7663C79.9852 19.3542 79.868 18.797 79.9161 18.2798C79.9514 17.9256 80.0331 17.7499 80.1317 17.5376Z" stroke="white" stroke-width="4" mask="url(#path-1-outside-1_1059_1453)"/>
<path fill-rule="evenodd" clip-rule="evenodd" d="M41.6311 9.72621C44.3294 11.013 44.5513 13.6623 43.8458 14.4508H43.8437C43.2041 15.1659 41.7668 15.3442 40.6715 15.48C39.8633 15.5803 39.2413 15.6574 39.2635 15.9101C39.2674 15.9536 39.2752 16.025 39.2855 16.1183C39.3705 16.8905 39.6209 19.1661 39.1316 19.6275C38.6846 20.0491 38.6312 20.0153 37.9851 19.607C37.8385 19.5143 37.6614 19.4024 37.4423 19.2722C36.6636 18.8096 36.5527 17.3125 36.5924 15.9016C35.1501 16.0236 33.6262 16.1981 33.509 16.2297C33.4603 16.2434 33.405 16.2541 33.3476 16.2653C33.185 16.2968 33.0045 16.3318 32.904 16.4483C32.726 16.6544 32.8265 16.9908 32.9228 17.2074C33.04 17.4681 33.1698 17.733 33.3038 17.9833L33.3328 18.0373C33.5758 18.4894 33.8543 19.0074 33.7476 19.5371C33.6722 19.9114 33.4587 20.1237 33.0589 19.9681C32.7918 19.8634 31.7079 18.6651 30.9325 17.808C30.5409 17.3751 30.2279 17.0291 30.1387 16.9551C29.9199 16.7722 29.4333 16.8202 29.1514 16.848L29.1318 16.8499C28.542 16.908 26.9998 17.0326 26.2502 17.0931C26.0767 17.1072 25.9457 17.1177 25.8788 17.1233C25.0373 17.1905 24.936 17.3469 24.4944 18.0289C24.4108 18.1579 24.3151 18.3057 24.1999 18.4753C24.151 18.5471 24.0544 18.7251 23.941 18.9339C23.6759 19.4225 23.3191 20.0799 23.2663 19.9429C23.2147 19.8082 23.0794 19.6737 22.9328 19.528C22.7043 19.301 22.4483 19.0466 22.4394 18.7213C22.4269 18.267 22.6479 17.9278 22.7949 17.7022C22.82 17.6636 22.843 17.6283 22.8623 17.5964C23.0088 17.3525 23.0444 16.8836 22.7702 16.8205C22.504 16.7593 22.5179 16.4009 22.5266 16.1761L22.5273 16.1561C22.5378 15.8743 22.5797 15.5715 22.632 15.2814C22.6927 14.9407 22.7974 14.6253 23.1553 14.5349C23.2961 14.4988 23.442 14.49 23.588 14.4813C23.7393 14.4722 23.8907 14.4631 24.0366 14.4235C24.3299 14.3435 24.4358 14.1423 24.5666 13.8936L24.5976 13.8348C24.7023 13.6371 27.2017 8.7611 27.3294 8.10087C27.3797 7.84435 27.7607 7.69296 28.0433 7.90953C28.4143 8.19231 29.8746 10.6925 30.6106 11.9526C30.8213 12.3134 30.9727 12.5726 31.0221 12.6489C31.6773 13.6581 31.7945 13.6834 32.5439 13.6729C32.653 13.6716 33.4555 13.6586 34.4736 13.642L34.4757 13.642C35.1766 13.6306 35.9795 13.6176 36.7285 13.6056C36.8164 12.2977 36.9797 11.7784 37.503 11.669C38.0661 11.5513 38.9098 12.1842 39.4519 13.5551C39.4975 13.5522 39.5456 13.5493 39.596 13.5463C40.3835 13.4989 41.7059 13.4193 41.8614 12.775C42.2319 11.2338 34.3274 9.44025 32.726 11.0067C31.8929 11.8204 30.549 9.36035 31.2314 8.94613C34.0344 7.24089 38.9307 8.43729 41.6311 9.72621ZM28.845 13.9399C28.845 13.9399 28.9622 13.9336 29.0083 13.8831L29.0062 13.8852C29.0522 13.8348 28.9999 13.738 28.9999 13.738L28.2317 11.7574C28.2317 11.7574 28.2003 11.6669 28.1186 11.6606C28.0202 11.6522 27.9491 11.8246 27.9491 11.8246L26.8229 13.7885L26.8082 13.8579L26.7998 13.9105L26.8229 13.963L26.8459 14.0009L26.8898 14.0303L26.9422 14.045L27.0238 14.0618H27.1955L27.2855 14.0703L27.3755 14.0618H27.4864L27.5995 14.0534H27.7418L28.845 13.9399Z" fill="black"/>
<path d="M47.2896 20.5212C46.4335 20.0376 46.2471 17.4871 46.2471 17.4871V17.485C46.2471 17.485 45.8055 14.5224 45.7929 14.2953C45.3031 14.0976 44.6855 13.1304 44.5725 12.1065C44.3778 10.3423 44.5997 9.32256 45.4245 8.44997C45.841 8.00841 46.2199 8.29017 46.1529 8.92516C46.0881 9.53913 46.042 10.5211 46.0525 10.9079C46.1927 13.7087 51.8845 11.4883 53.1886 9.77883C54.3421 8.28806 54.9052 8.33853 55.0998 9.02188C55.2715 9.62744 55.1543 10.7292 54.8989 11.6922C54.6979 12.4471 54.3714 13.2671 53.7015 13.7717C53.0588 14.2574 50.9216 15.437 48.6356 15.4265C48.8533 16.6671 48.6566 19.0809 48.6566 19.0809C48.3567 21.354 47.6 20.7634 47.3163 20.5419L47.2896 20.5212Z" fill="black"/>
<path d="M58.0575 18.0463C58.0722 17.8192 58.0471 17.5942 57.9822 17.4176C57.8126 16.9635 57.3437 16.5009 56.8727 16.4126C56.4457 16.3327 55.9391 16.4168 55.5937 16.6943C55.4053 16.8457 55.2022 17.0896 55.1038 17.3146C54.8903 17.8108 54.9112 18.5488 55.2252 18.9883C55.759 19.7326 56.8853 19.7326 57.5133 19.1292C57.8147 18.839 58.0282 18.4731 58.0575 18.0463Z" fill="black"/>
<path fill-rule="evenodd" clip-rule="evenodd" d="M80.2948 15.4139C81.2494 12.3629 79.0744 8.57399 76.1563 8.44784V8.44573C74.7789 8.38686 73.1754 9.43187 72.0471 10.2645C71.1512 10.9268 70.2364 11.9067 69.6168 12.9096C69.3007 13.4206 69.0704 14.1775 68.9469 14.7873C68.922 14.9105 68.906 15.045 68.8976 15.1859C67.8458 16.2798 66.7515 16.5169 66.1784 16.6411L66.098 16.6586C65.2167 16.829 64.3249 16.829 63.7262 16.728C63.1359 16.686 62.016 16.3748 61.6936 15.7839C61.4654 15.3655 61.681 14.8462 61.9092 14.4761C63.1778 12.4113 65.179 11.0383 67.6742 10.9163C68.298 10.8848 68.9742 10.8154 69.3112 10.2141C69.7424 9.4466 69.0768 8.69806 68.3629 8.41631C67.0902 7.90958 65.5746 8.41 64.3668 8.87889C63.1736 9.34147 62.0222 9.98908 61.2058 10.9731C60.1508 12.2515 59.4537 14.0367 59.7154 15.683C60.0901 18.038 61.8841 20.252 64.5489 20.0187C65.3988 19.943 66.2612 19.8042 67.0672 19.5287C67.8878 19.247 68.5744 18.7928 69.2673 18.1263C69.3657 18.0316 69.4654 17.9129 69.5642 17.7784C69.9975 18.3665 70.6024 18.8105 71.1679 19.1629C71.6703 19.4762 72.2523 19.7201 72.807 19.8609C74.5633 20.3046 76.8011 19.7621 78.302 18.6309C79.3194 17.8634 79.9285 16.5871 80.2948 15.4139ZM75.252 16.4841C74.3519 16.6061 73.479 16.5829 72.6416 16.2339C72.1497 16.0299 71.6682 15.5001 71.5782 14.8777C71.4694 14.1271 72.045 13.3512 72.4721 12.8697C73.0714 12.1945 73.8818 11.8602 74.6522 11.5422L74.6659 11.5366C75.5074 11.1876 76.5499 11.1855 77.2616 11.892C77.9503 12.5753 78.0278 13.6981 77.6447 14.6107C77.1967 15.6788 76.2463 16.3495 75.252 16.4841Z" fill="black"/>
<path d="M80.1318 17.5376C80.1913 17.4096 80.2569 17.2683 80.3223 17.0665L80.3202 17.0686C80.8875 15.6283 81.4213 13.3638 81.5783 12.3629C81.692 11.8265 81.7409 11.2692 81.7892 10.7178C81.8023 10.5689 81.8153 10.4204 81.8295 10.2729C81.8373 10.1833 81.8455 10.0948 81.8537 10.0066C81.8718 9.81123 81.8898 9.61773 81.9028 9.41924C81.9061 9.36213 81.907 9.29946 81.908 9.2339C81.9123 8.9301 81.9176 8.56413 82.1707 8.40156C82.401 8.25438 82.7359 8.35741 82.9704 8.44151C83.3032 8.55926 83.6026 8.70014 83.8349 8.9903C84.0329 9.23834 84.1652 9.54433 84.2939 9.84204L84.3038 9.865C84.4234 10.1451 84.5502 10.4204 84.6769 10.6955C84.7166 10.7817 84.7563 10.8679 84.7958 10.9542C84.9214 11.2401 85.0449 11.524 85.1537 11.8204C85.1597 11.8369 85.1659 11.8541 85.1723 11.8719C85.2876 12.1923 85.4786 12.7232 85.8236 12.7729C86.0793 12.8079 86.2497 12.5423 86.3877 12.3272C86.4158 12.2835 86.4425 12.2418 86.4683 12.2052C86.9959 11.4609 87.5925 10.7607 88.187 10.0816C88.5219 9.7031 88.8736 9.34985 89.265 9.03866C89.7235 8.6728 90.3305 8.32377 90.9167 8.35531C91.1595 8.36792 91.4379 8.46675 91.6514 8.5929C91.8796 8.72537 91.9843 8.83891 92.1643 9.04077C92.284 9.17434 92.3671 9.3519 92.4484 9.52541C92.4823 9.59772 92.5158 9.66932 92.5516 9.73674C92.6479 9.91042 92.7002 10.1766 92.7479 10.4199C92.7707 10.5359 92.7924 10.6467 92.8174 10.7397C93.0267 12.0202 93.0267 12.4386 93.0184 13.6708C92.9978 14.064 92.9979 14.4564 92.9979 14.8486C92.9981 15.2932 92.9982 15.7377 92.9681 16.1834L92.9677 16.1896C92.9427 16.5471 92.9179 16.9025 92.9179 17.2621C92.9258 17.7339 92.9946 18.024 93.0665 18.3271C93.1279 18.586 93.1915 18.8543 93.2214 19.2533L93.2227 19.2699C93.2412 19.5086 93.2602 19.755 93.2193 19.9913C93.1984 20.1069 93.1754 20.231 93.1251 20.3319C92.8802 20.8176 92.1789 20.9333 91.7959 20.5863C91.4735 20.2941 91.2537 19.8609 91.1281 19.4425C91.0668 19.2275 91.0227 19.1201 90.9837 19.0252C90.9335 18.903 90.8919 18.8015 90.8329 18.5173C90.7848 18.2734 90.7408 18.0295 90.6969 17.7856L90.611 17.2705C90.5941 17.1692 90.5769 17.0679 90.5597 16.9665C90.515 16.704 90.4703 16.4411 90.431 16.1771C90.3511 15.5978 90.3044 15.0141 90.2578 14.4321C90.2251 14.0233 90.1925 13.6154 90.1484 13.2103C90.1254 13.0042 90.0689 12.7183 89.826 12.7225C89.6045 12.7258 89.4182 12.9732 89.265 13.1764C89.2243 13.2305 89.186 13.2814 89.1499 13.3238C89.018 13.4815 88.8846 13.6382 88.7511 13.7948C88.6177 13.9515 88.4842 14.1081 88.3523 14.2658C88.1855 14.4629 88.0216 14.6638 87.8591 14.8627C87.779 14.9609 87.6992 15.0587 87.6197 15.1552C87.5912 15.1904 87.5614 15.228 87.5302 15.2673C87.1809 15.7074 86.6669 16.3551 86.0999 16.0404C85.8206 15.8878 85.6368 15.5752 85.4641 15.2813C85.4156 15.1986 85.3678 15.1174 85.3191 15.0417C85.287 14.9906 85.255 14.9395 85.2231 14.8885C85.0553 14.6202 84.8883 14.3534 84.7037 14.0955C84.6957 14.0841 84.6868 14.0713 84.6771 14.0572C84.5475 13.8694 84.2746 13.4738 84.0505 13.6245C83.9016 13.7253 83.8489 13.9087 83.7984 14.0845C83.7815 14.1434 83.7649 14.2015 83.7449 14.2553C83.702 14.3662 83.6535 14.4748 83.6051 14.5833C83.5423 14.7238 83.4796 14.8643 83.4288 15.0101C83.3589 15.2053 83.2839 15.3995 83.2089 15.5939C83.1311 15.7953 83.0533 15.997 82.9808 16.2002C82.7883 16.7469 82.6145 17.2999 82.445 17.855C82.3342 18.2173 82.2328 18.4261 82.12 18.6586C82.0409 18.8214 81.9563 18.9959 81.8588 19.2428C81.7311 19.556 81.526 19.9345 81.2455 20.1111C80.8938 20.3319 80.5149 20.0691 80.2909 19.7663C79.9853 19.3542 79.8681 18.797 79.9162 18.2797C79.9515 17.9256 80.0331 17.7499 80.1318 17.5376Z" fill="black"/>
<path d="M20.0656 6.48398C20.9783 6.96127 21.8261 7.33344 22.2594 8.38686C22.6843 9.42346 21.8093 13.7801 21.8198 16.6902C21.8198 16.8289 21.8198 16.9677 21.8177 17.1065C21.8575 18.1473 21.4514 20.1784 20.5847 19.7032C20.3042 19.5498 19.8918 18.6793 19.5653 17.6973C19.0357 16.1035 19.4732 12.1674 19.0336 12.0833C18.347 12.918 16.5048 14.4004 15.8057 14.8588C14.6083 15.641 14.2252 14.5602 14.0159 13.8579C13.7584 12.9979 12.764 11.0887 12.5652 10.9311C12.4145 10.8112 12.4019 10.9815 12.3726 11.0824C12.3014 11.3327 11.9204 13.9841 11.5101 15.4328C11.0684 16.9866 10.0239 19.5498 9.53613 20.1532C9.05048 20.7567 7.03041 21.2718 6.62431 21.2907C6.36055 21.3538 8.04568 17.855 8.4455 16.3769C9.01489 14.8567 9.88153 11.3516 9.99248 9.00293C10.0846 7.45539 9.95061 6.01088 9.93177 5.59246C9.93177 5.03105 10.497 4.72617 10.8131 4.65889C11.1773 4.58319 11.9728 4.43601 12.7871 5.35486C13.2664 5.89524 14.0075 7.69509 14.2126 8.14085C14.468 8.69805 15.5419 11.217 15.7031 11.8078C16.2411 11.4168 17.0365 10.6304 17.8425 9.74306C18.7091 8.78846 19.6741 7.18836 19.7809 6.39777C19.8835 6.36202 19.9777 6.43562 20.0677 6.48608" fill="#CC0000"/>
</g>
<defs>
<filter id="filter0_d_1059_1453" x="0.59668" y="0.60173" width="98.6467" height="28.6879" filterUnits="userSpaceOnUse" color-interpolation-filters="sRGB">
<feFlood flood-opacity="0" result="BackgroundImageFix"/>
<feColorMatrix in="SourceAlpha" type="matrix" values="0 0 0 0 0 0 0 0 0 0 0 0 0 0 0 0 0 0 127 0" result="hardAlpha"/>
<feOffset dy="2"/>
<feGaussianBlur stdDeviation="2"/>
<feComposite in2="hardAlpha" operator="out"/>
<feColorMatrix type="matrix" values="0 0 0 0 0 0 0 0 0 0 0 0 0 0 0 0 0 0 0.2 0"/>
<feBlend mode="normal" in2="BackgroundImageFix" result="effect1_dropShadow_1059_1453"/>
<feBlend mode="normal" in="SourceGraphic" in2="effect1_dropShadow_1059_1453" result="shape"/>
</filter>
</defs>
</svg>
